<svg xmlns="http://www.w3.org/2000/svg" xmlns:xlink="http://www.w3.org/1999/xlink" width="500" zoomAndPan="magnify" viewBox="0 0 375 374.999991" height="500" preserveAspectRatio="xMidYMid meet" version="1.0"><defs><g/><clipPath id="5d5d803a1d"><path d="M 22.496094 107.148438 L 87 107.148438 L 87 194.898438 L 22.496094 194.898438 Z M 22.496094 107.148438 " clip-rule="nonzero"/></clipPath></defs><g clip-path="url(#5d5d803a1d)"><path fill="#a0e4b0" d="M 86.367188 119.421875 C 85.210938 116.363281 82.320312 113.878906 78.585938 112.726562 C 76.816406 111.1875 74.417969 110.15625 71.71875 109.824219 C 69.703125 108.617188 67.160156 108.023438 64.445312 108.144531 C 62.253906 107.304688 59.644531 107.148438 56.996094 107.757812 C 54.507812 107.269531 51.6875 107.671875 49.003906 108.929688 C 44.660156 110.941406 41.890625 114.894531 39.453125 118.390625 C 38.964844 119.089844 38.492188 119.789062 38.015625 120.488281 C 36.824219 121.222656 35.738281 122.113281 34.773438 123.128906 C 33.039062 124.351562 31.550781 125.890625 30.375 127.65625 C 28.886719 129.160156 27.695312 130.925781 26.835938 132.867188 C 25.628906 134.613281 24.75 136.554688 24.261719 138.617188 C 23.050781 141.308594 22.523438 144.109375 22.753906 146.695312 C 22.804688 147.183594 22.875 147.691406 22.980469 148.179688 C 24.3125 154.5625 30.027344 158.792969 35.457031 162.097656 L 36.386719 162.65625 C 36.351562 162.816406 36.316406 162.953125 36.28125 163.113281 C 35.6875 165.558594 34.476562 167.832031 33.304688 170.035156 C 32.585938 171.398438 31.832031 172.796875 31.234375 174.25 C 29.710938 177.886719 29.132812 182.867188 32.007812 186 C 33.390625 187.5 35.25 188.253906 37.175781 188.585938 C 37.578125 189.144531 38.070312 189.636719 38.613281 190.035156 C 40.226562 191.277344 42.171875 191.679688 44.117188 191.679688 L 44.152344 191.679688 C 44.640625 192.152344 45.203125 192.554688 45.816406 192.871094 C 46.972656 193.445312 48.234375 193.742188 49.53125 193.726562 C 50.214844 193.726562 50.898438 193.671875 51.5625 193.550781 C 52.125 193.9375 52.753906 194.234375 53.402344 194.441406 C 54.140625 194.671875 54.894531 194.792969 55.664062 194.773438 C 56.875 194.757812 58.046875 194.53125 59.167969 194.09375 C 59.800781 194.371094 60.464844 194.546875 61.132812 194.636719 C 61.449219 194.671875 61.761719 194.6875 62.078125 194.6875 C 65.828125 194.6875 69.070312 191.855469 71.242188 189.636719 C 76.675781 184.109375 78.886719 178.917969 77.816406 174.179688 C 76.710938 169.300781 72.332031 165.996094 67.738281 163.148438 L 67.632812 163.09375 C 63.253906 160.367188 58.75 157.570312 57.015625 152.882812 C 56.734375 152.113281 56.539062 151.328125 56.4375 150.523438 C 56.4375 150.402344 56.4375 150.296875 56.4375 150.175781 C 56.4375 150.050781 56.488281 149.945312 56.503906 149.824219 C 56.523438 149.703125 56.59375 149.597656 56.628906 149.492188 C 57.835938 147.445312 59.730469 145.558594 62.304688 143.878906 C 64.882812 142.203125 67.773438 140.925781 70.5625 139.703125 C 71.542969 139.265625 72.558594 138.828125 73.539062 138.375 C 77.027344 136.746094 80.988281 134.632812 83.792969 131.203125 C 86.71875 127.691406 87.71875 123.039062 86.367188 119.421875 Z M 80.285156 115.207031 C 82.195312 118.441406 82.023438 123.074219 79.8125 127.007812 C 77.675781 130.820312 74.1875 133.566406 71.070312 135.734375 C 70.175781 136.363281 69.265625 136.972656 68.371094 137.570312 C 65.828125 139.265625 63.199219 141.011719 60.921875 143.128906 C 59.273438 144.648438 58.011719 146.242188 57.101562 147.847656 C 57.785156 146.101562 58.714844 144.476562 59.851562 142.988281 C 61.710938 140.523438 63.972656 138.355469 66.179688 136.238281 C 66.949219 135.503906 67.757812 134.738281 68.527344 133.96875 C 71.261719 131.257812 74.242188 127.917969 75.695312 123.738281 C 77.113281 119.664062 76.640625 115.292969 74.519531 112.339844 C 75.660156 112.375 76.800781 112.53125 77.886719 112.8125 C 78.0625 112.863281 78.253906 112.917969 78.429688 112.96875 C 79.148438 113.632812 79.777344 114.386719 80.285156 115.207031 Z M 42.449219 188.726562 L 42.941406 188.671875 C 44.5 188.535156 46.042969 188.289062 47.566406 187.9375 C 47.902344 188.917969 48.339844 189.84375 48.863281 190.71875 C 47.464844 191.070312 45.851562 191.382812 44.238281 191.402344 C 43.503906 190.632812 42.890625 189.722656 42.449219 188.726562 Z M 39.085938 164.335938 C 39.664062 164.703125 40.226562 165.054688 40.785156 165.4375 C 41.382812 166.871094 41.765625 168.390625 41.941406 169.929688 C 42.222656 172.429688 41.871094 174.984375 41.523438 177.464844 C 41.3125 178.988281 41.085938 180.578125 41.015625 182.132812 C 40.925781 184.164062 41.1875 186.453125 41.996094 188.464844 C 40.539062 188.570312 38.910156 188.585938 37.332031 188.324219 C 35.441406 185.667969 35.386719 181.785156 36.070312 178.691406 C 36.40625 177.1875 36.894531 175.664062 37.367188 174.214844 C 38.140625 171.820312 38.945312 169.355469 39.105469 166.800781 C 39.171875 165.980469 39.171875 165.15625 39.085938 164.335938 Z M 24.261719 140.59375 C 24.3125 139.945312 24.417969 139.316406 24.558594 138.6875 C 24.945312 137.832031 25.398438 136.992188 25.890625 136.1875 C 25.890625 136.1875 25.890625 136.207031 25.890625 136.207031 C 24.960938 142.65625 28.871094 148.601562 32.828125 153.550781 L 33.707031 154.632812 C 34.722656 155.910156 35.757812 157.183594 36.71875 158.496094 C 36.738281 159.039062 36.738281 159.582031 36.703125 160.121094 C 36.140625 159.617188 35.582031 159.125 35.019531 158.636719 C 34.671875 158.339844 34.320312 158.023438 33.96875 157.726562 C 29.253906 153.566406 24.417969 148.460938 24.207031 142.0625 C 24.207031 141.574219 24.207031 141.082031 24.261719 140.59375 Z M 32.742188 125.925781 L 32.726562 125.941406 C 32.480469 126.398438 32.269531 126.851562 32.09375 127.324219 C 31.289062 127.988281 30.5 128.667969 29.746094 129.402344 C 30.007812 128.863281 30.304688 128.320312 30.640625 127.8125 C 31.289062 127.148438 32.007812 126.519531 32.742188 125.925781 Z M 36.914062 122.113281 C 36.632812 122.53125 36.335938 122.96875 36.035156 123.390625 C 35.285156 123.828125 34.546875 124.265625 33.847656 124.753906 C 34.195312 124.265625 34.582031 123.792969 35.003906 123.355469 C 35.617188 122.898438 36.246094 122.5 36.914062 122.113281 Z M 38.226562 120.695312 C 39.472656 119.929688 40.785156 119.296875 42.152344 118.808594 C 41.800781 119.175781 41.433594 119.542969 41.066406 119.910156 C 40.050781 120.261719 39.070312 120.679688 38.105469 121.132812 L 37.84375 121.257812 Z M 56.980469 108.058594 C 57.925781 108.25 58.855469 108.582031 59.695312 109.054688 L 59.78125 109.105469 C 56.734375 110.222656 54.035156 112.113281 51.582031 113.828125 C 50.773438 114.386719 49.96875 114.980469 49.179688 115.558594 C 48.355469 116.152344 47.5 116.78125 46.640625 117.375 C 45.585938 117.550781 44.535156 117.777344 43.503906 118.074219 C 43.414062 118.09375 43.328125 118.128906 43.222656 118.164062 L 43.449219 117.917969 C 44.117188 117.21875 44.816406 116.5 45.5 115.800781 C 48.496094 112.8125 51.878906 109.4375 56.402344 108.195312 C 56.628906 108.144531 56.804688 108.089844 56.980469 108.058594 Z M 64.375 108.441406 C 65.285156 108.789062 66.125 109.28125 66.878906 109.890625 L 66.949219 109.960938 C 65.476562 110.242188 64.042969 110.644531 62.640625 111.1875 C 62.027344 110.417969 61.289062 109.734375 60.484375 109.175781 C 61.570312 108.824219 62.691406 108.582031 63.8125 108.476562 C 64.007812 108.457031 64.199219 108.457031 64.375 108.441406 Z M 71.59375 110.101562 C 72.417969 110.609375 73.171875 111.238281 73.804688 111.957031 L 73.871094 112.042969 C 72.382812 112.058594 70.875 112.21875 69.421875 112.515625 C 68.949219 111.640625 68.351562 110.855469 67.652344 110.15625 C 68.386719 110.050781 69.125 109.996094 69.859375 109.996094 C 70.261719 109.996094 70.648438 110.015625 71.050781 110.050781 C 71.226562 110.066406 71.417969 110.085938 71.59375 110.101562 Z M 52.125 181.539062 C 51.597656 179.09375 51.054688 176.539062 49.917969 174.25 C 48.304688 171.015625 45.726562 168.566406 42.800781 166.433594 C 42.011719 165.402344 41.171875 164.40625 40.261719 163.480469 C 39.664062 162.324219 39 161.207031 38.261719 160.121094 C 37.878906 158.882812 37.421875 157.65625 36.878906 156.46875 C 36.441406 152.882812 35.230469 149.316406 34.054688 145.820312 L 33.601562 144.492188 C 31.9375 139.527344 30.515625 133.949219 31.867188 128.96875 C 32.8125 127.933594 33.757812 126.867188 34.636719 125.765625 L 34.738281 125.644531 L 35.039062 125.398438 C 36.457031 124.332031 37.929688 123.214844 39.277344 122.007812 L 39.402344 121.902344 L 39.753906 121.730469 C 41.347656 120.925781 42.976562 120.085938 44.519531 119.125 L 44.660156 119.035156 L 45.042969 118.914062 C 46.746094 118.390625 48.515625 117.847656 50.195312 117.164062 L 50.355469 117.113281 L 50.738281 117.0625 C 52.511719 116.832031 54.332031 116.605469 56.101562 116.238281 C 58.03125 115.820312 59.957031 115.277344 61.816406 114.734375 C 62.570312 114.527344 63.324219 114.296875 64.09375 114.089844 C 64.828125 115.785156 65.214844 117.601562 65.234375 119.457031 C 65.285156 123.808594 63.636719 127.933594 62.027344 131.378906 C 61.570312 132.359375 61.078125 133.355469 60.605469 134.316406 C 59.257812 137.042969 57.855469 139.875 56.945312 142.847656 C 56.15625 145.417969 55.875 147.777344 56.066406 149.914062 C 55.839844 150.347656 55.648438 150.804688 55.472656 151.257812 C 53.738281 156.050781 55.488281 161.382812 57.015625 166.085938 L 57.050781 166.191406 C 58.695312 171.242188 59.921875 176.523438 57.679688 180.859375 C 56.699219 182.746094 55.175781 184.285156 53.089844 185.472656 C 52.703125 184.214844 52.40625 182.867188 52.125 181.539062 Z M 52.824219 185.699219 C 51.230469 186.539062 49.546875 187.167969 47.796875 187.589844 C 47.480469 186.628906 47.269531 185.632812 47.128906 184.632812 C 46.9375 183.113281 46.867188 181.523438 46.816406 179.984375 C 46.726562 177.464844 46.621094 174.878906 45.902344 172.429688 C 45.34375 170.59375 44.5 168.863281 43.398438 167.289062 C 45.972656 169.265625 48.214844 171.523438 49.636719 174.40625 C 50.757812 176.664062 51.300781 179.179688 51.828125 181.628906 C 52.105469 182.957031 52.421875 184.355469 52.824219 185.699219 Z M 41.941406 165.824219 C 41.644531 165.613281 41.363281 165.421875 41.066406 165.226562 C 40.960938 164.949219 40.839844 164.667969 40.714844 164.40625 C 41.117188 164.859375 41.539062 165.332031 41.941406 165.824219 Z M 39.507812 162.726562 C 39.261719 162.484375 39 162.238281 38.734375 161.992188 C 38.664062 161.695312 38.59375 161.398438 38.523438 161.121094 C 38.875 161.644531 39.191406 162.1875 39.507812 162.726562 Z M 37.035156 158.390625 C 37.019531 158.09375 37 157.78125 36.984375 157.484375 C 37.230469 158.058594 37.4375 158.652344 37.648438 159.25 C 37.457031 158.96875 37.246094 158.671875 37.035156 158.390625 Z M 28.746094 132.394531 C 29.5 131.535156 30.269531 130.699219 31.042969 129.875 L 31.429688 129.457031 C 30.304688 134.386719 31.691406 139.789062 33.304688 144.632812 C 33.460938 145.070312 33.601562 145.507812 33.757812 145.960938 C 34.828125 149.109375 35.914062 152.324219 36.421875 155.542969 C 35.5625 153.722656 34.582031 151.941406 33.617188 150.175781 L 32.953125 148.949219 C 30.199219 143.863281 27.625 138.023438 28.746094 132.394531 Z M 32.058594 128.320312 C 32.144531 128.058594 32.234375 127.777344 32.355469 127.515625 C 32.8125 127.148438 33.269531 126.800781 33.722656 126.449219 C 33.179688 127.097656 32.621094 127.726562 32.058594 128.320312 Z M 35.40625 124.769531 C 35.6875 124.386719 35.964844 124 36.230469 123.617188 C 36.894531 123.230469 37.578125 122.863281 38.246094 122.515625 C 37.332031 123.300781 36.371094 124.054688 35.40625 124.769531 Z M 43.433594 119.457031 C 42.378906 120.066406 41.292969 120.628906 40.226562 121.1875 C 40.574219 120.855469 40.910156 120.523438 41.242188 120.191406 C 41.960938 119.929688 42.695312 119.683594 43.433594 119.457031 Z M 45.585938 118.460938 C 45.992188 118.195312 46.375 117.933594 46.761719 117.65625 C 47.515625 117.53125 48.285156 117.410156 49.039062 117.304688 C 47.902344 117.742188 46.746094 118.109375 45.585938 118.460938 Z M 51.355469 116.710938 C 52.773438 116.097656 54.175781 115.398438 55.523438 114.753906 C 56.402344 114.332031 57.292969 113.894531 58.1875 113.476562 C 59.574219 112.828125 61.027344 112.148438 62.550781 111.570312 C 63.09375 112.289062 63.566406 113.058594 63.9375 113.859375 C 63.183594 114.070312 62.429688 114.28125 61.691406 114.492188 C 59.835938 115.03125 57.925781 115.574219 55.996094 115.976562 C 54.492188 116.308594 52.894531 116.519531 51.355469 116.710938 Z M 65.511719 119.507812 C 65.496094 117.636719 65.109375 115.785156 64.375 114.070312 L 64.636719 114 C 66.109375 113.597656 67.667969 113.179688 69.265625 112.882812 C 70.507812 115.226562 70.980469 118.195312 70.492188 121.167969 C 69.789062 125.46875 67.457031 129.246094 65.269531 132.359375 C 64.636719 133.25 63.988281 134.140625 63.359375 135 C 61.554688 137.464844 59.679688 140 58.277344 142.777344 C 57.257812 144.773438 56.609375 146.695312 56.3125 148.511719 C 56.367188 146.644531 56.664062 144.789062 57.222656 143.007812 C 58.117188 140.070312 59.503906 137.238281 60.851562 134.507812 C 61.324219 133.546875 61.816406 132.550781 62.269531 131.570312 C 63.917969 128.074219 65.566406 123.914062 65.511719 119.507812 Z M 57.941406 181.066406 C 60.238281 176.628906 59.011719 171.277344 57.347656 166.15625 L 57.3125 166.050781 C 55.71875 161.1875 54.070312 156.152344 55.734375 151.484375 C 55.71875 151.609375 55.683594 151.714844 55.664062 151.835938 C 54.789062 156.851562 57.433594 161.800781 59.765625 166.171875 L 59.816406 166.277344 C 62.324219 170.960938 64.445312 175.960938 62.988281 180.613281 C 61.902344 184.09375 59.03125 186.855469 54.402344 188.867188 C 53.929688 187.972656 53.542969 187.03125 53.246094 186.066406 C 53.230469 186 53.195312 185.910156 53.175781 185.839844 C 55.332031 184.617188 56.925781 183.007812 57.941406 181.066406 Z M 58.539062 142.882812 C 59.941406 140.140625 61.796875 137.605469 63.601562 135.15625 C 64.234375 134.300781 64.882812 133.40625 65.511719 132.515625 C 67.722656 129.367188 70.085938 125.558594 70.789062 121.203125 C 71.277344 118.195312 70.804688 115.207031 69.5625 112.8125 C 71 112.53125 72.453125 112.375 73.925781 112.359375 L 74.117188 112.359375 C 76.308594 115.242188 76.816406 119.613281 75.398438 123.667969 C 73.960938 127.777344 71 131.101562 68.300781 133.773438 C 67.527344 134.542969 66.742188 135.296875 65.96875 136.046875 C 63.761719 138.164062 61.484375 140.347656 59.609375 142.832031 C 58.257812 144.632812 57.277344 146.398438 56.679688 148.144531 C 57.050781 146.3125 57.679688 144.542969 58.539062 142.882812 Z M 69.105469 112.566406 C 67.546875 112.863281 66.003906 113.285156 64.550781 113.6875 L 64.25 113.773438 C 63.882812 112.953125 63.410156 112.164062 62.867188 111.449219 C 64.285156 110.90625 65.757812 110.488281 67.265625 110.222656 C 67.984375 110.90625 68.617188 111.691406 69.105469 112.566406 Z M 62.359375 111.308594 C 60.871094 111.886719 59.433594 112.550781 58.066406 113.195312 C 57.171875 113.617188 56.277344 114.054688 55.402344 114.472656 C 53.71875 115.292969 52 116.132812 50.25 116.851562 C 49.285156 116.972656 48.320312 117.09375 47.359375 117.253906 C 48.042969 116.761719 48.707031 116.273438 49.375 115.800781 C 50.144531 115.242188 50.949219 114.648438 51.757812 114.089844 C 54.261719 112.339844 57.015625 110.398438 60.117188 109.316406 C 60.957031 109.859375 61.710938 110.523438 62.359375 111.308594 Z M 43.609375 118.355469 C 44.414062 118.128906 45.21875 117.953125 46.042969 117.796875 C 45.535156 118.144531 45.027344 118.476562 44.519531 118.792969 C 43.609375 119.089844 42.679688 119.367188 41.765625 119.683594 C 42.117188 119.316406 42.484375 118.964844 42.835938 118.597656 C 43.0625 118.511719 43.328125 118.425781 43.609375 118.355469 Z M 38.246094 121.414062 C 39 121.046875 39.769531 120.730469 40.539062 120.433594 C 40.101562 120.855469 39.664062 121.273438 39.226562 121.675781 C 38.367188 122.113281 37.507812 122.566406 36.648438 123.039062 C 36.949219 122.621094 37.230469 122.199219 37.507812 121.78125 C 37.738281 121.660156 38 121.535156 38.246094 121.414062 Z M 33.496094 125.367188 C 34.179688 124.875 34.878906 124.421875 35.597656 124 C 35.25 124.492188 34.878906 124.980469 34.511719 125.46875 C 33.882812 125.960938 33.234375 126.433594 32.601562 126.9375 C 32.726562 126.660156 32.863281 126.378906 33.003906 126.101562 C 33.128906 125.890625 33.25 125.664062 33.375 125.453125 Z M 29.519531 130.070312 C 30.269531 129.316406 31.058594 128.582031 31.882812 127.917969 C 31.777344 128.214844 31.671875 128.546875 31.585938 128.863281 L 30.816406 129.683594 C 30.167969 130.367188 29.519531 131.066406 28.886719 131.78125 C 28.957031 131.484375 29.042969 131.1875 29.148438 130.890625 C 29.21875 130.664062 29.308594 130.417969 29.394531 130.191406 Z M 28.871094 130.785156 C 28.710938 131.273438 28.589844 131.765625 28.484375 132.253906 C 27.800781 133.039062 27.132812 133.863281 26.539062 134.703125 C 26.695312 134.125 26.90625 133.546875 27.132812 132.988281 C 27.675781 132.203125 28.257812 131.46875 28.886719 130.75 Z M 26.414062 135.382812 C 27.027344 134.507812 27.675781 133.652344 28.359375 132.847656 C 27.46875 138.40625 29.992188 144.109375 32.691406 149.054688 L 33.355469 150.28125 C 34.496094 152.34375 35.632812 154.421875 36.582031 156.554688 C 36.632812 157.011719 36.667969 157.484375 36.703125 157.9375 C 35.808594 156.75 34.878906 155.59375 33.953125 154.421875 L 33.074219 153.339844 C 29.167969 148.425781 25.292969 142.550781 26.207031 136.222656 C 26.242188 135.976562 26.277344 135.734375 26.328125 135.488281 Z M 37.054688 158.933594 C 37.367188 159.371094 37.683594 159.824219 37.980469 160.261719 C 38.121094 160.699219 38.246094 161.152344 38.351562 161.609375 C 37.910156 161.1875 37.457031 160.785156 37.019531 160.386719 C 37.035156 159.894531 37.054688 159.421875 37.054688 158.933594 Z M 38.457031 162.152344 C 38.558594 162.675781 38.648438 163.21875 38.71875 163.757812 C 38.085938 163.355469 37.4375 162.972656 36.789062 162.585938 L 36.703125 162.535156 C 36.824219 161.957031 36.894531 161.363281 36.949219 160.785156 C 37.472656 161.222656 37.964844 161.679688 38.457031 162.152344 Z M 38.839844 162.519531 C 39.226562 162.902344 39.613281 163.289062 39.996094 163.671875 C 40.207031 164.089844 40.402344 164.511719 40.59375 164.929688 C 40.085938 164.597656 39.578125 164.285156 39.070312 163.953125 C 39.015625 163.460938 38.929688 162.988281 38.839844 162.519531 Z M 41.347656 182.132812 C 41.417969 180.597656 41.644531 179.023438 41.855469 177.5 C 42.207031 175.019531 42.554688 172.429688 42.277344 169.894531 C 42.117188 168.460938 41.765625 167.0625 41.257812 165.734375 C 41.714844 166.03125 42.152344 166.347656 42.589844 166.660156 C 43.921875 168.425781 44.972656 170.351562 45.605469 172.484375 C 46.324219 174.894531 46.410156 177.484375 46.5 179.964844 C 46.550781 181.503906 46.621094 183.097656 46.816406 184.652344 C 46.953125 185.667969 47.164062 186.664062 47.480469 187.640625 C 45.972656 187.992188 44.449219 188.21875 42.925781 188.375 C 42.730469 188.394531 42.539062 188.410156 42.328125 188.429688 C 41.523438 186.453125 41.257812 184.164062 41.347656 182.132812 Z M 47.882812 187.867188 C 49.636719 187.46875 51.320312 186.835938 52.914062 186 C 52.929688 186.050781 52.949219 186.101562 52.964844 186.15625 C 53.28125 187.136719 53.667969 188.078125 54.140625 188.988281 C 52.71875 189.582031 51.265625 190.089844 49.777344 190.492188 C 49.582031 190.542969 49.390625 190.597656 49.199219 190.648438 C 48.65625 189.773438 48.214844 188.847656 47.882812 187.867188 Z M 49.847656 190.789062 C 51.355469 190.371094 52.824219 189.863281 54.28125 189.269531 C 54.769531 190.175781 55.367188 191.015625 56.050781 191.785156 C 54.71875 192.378906 53.195312 192.957031 51.617188 193.253906 C 50.722656 192.625 49.96875 191.835938 49.375 190.929688 Z M 54.5625 189.128906 C 59.238281 187.066406 62.167969 184.234375 63.289062 180.683594 C 64.777344 175.910156 62.640625 170.859375 60.097656 166.101562 L 60.046875 165.996094 C 57.628906 161.488281 55.140625 156.800781 55.960938 151.921875 C 55.960938 152.046875 55.960938 152.148438 55.960938 152.273438 C 55.980469 157.359375 59.433594 161.785156 62.5 165.683594 L 62.570312 165.769531 C 65.863281 169.964844 68.808594 174.496094 68.175781 179.335938 C 67.5625 184.039062 63.761719 188.078125 56.875 191.367188 C 56.699219 191.453125 56.523438 191.539062 56.332031 191.609375 C 55.648438 190.875 55.050781 190.035156 54.5625 189.128906 Z M 57.015625 191.664062 C 64.007812 188.324219 67.863281 184.199219 68.492188 179.390625 C 69.140625 174.441406 66.144531 169.824219 62.816406 165.59375 L 62.746094 165.507812 C 59.574219 161.46875 56.3125 157.308594 56.277344 152.359375 C 56.296875 152.480469 56.3125 152.585938 56.332031 152.710938 C 57.222656 157.710938 61.414062 161.46875 65.09375 164.773438 L 65.179688 164.84375 C 69.140625 168.390625 72.839844 172.359375 73.066406 177.238281 C 73.277344 181.960938 70.246094 186.609375 64.023438 191.050781 C 62.675781 192.011719 60.992188 193.097656 59.167969 193.777344 C 58.1875 193.304688 57.3125 192.675781 56.558594 191.871094 Z M 77.832031 112.515625 C 76.675781 112.234375 75.484375 112.078125 74.277344 112.058594 C 74.207031 111.972656 74.117188 111.867188 74.046875 111.78125 C 73.539062 111.1875 72.960938 110.660156 72.332031 110.222656 C 74.433594 110.574219 76.328125 111.378906 77.832031 112.515625 Z M 70.929688 109.734375 C 69.738281 109.648438 68.527344 109.699219 67.355469 109.890625 C 67.265625 109.804688 67.179688 109.734375 67.074219 109.664062 C 66.476562 109.15625 65.8125 108.738281 65.109375 108.421875 C 67.25 108.421875 69.246094 108.878906 70.929688 109.734375 Z M 60.167969 107.691406 C 61.359375 107.691406 62.535156 107.847656 63.65625 108.195312 C 62.464844 108.320312 61.289062 108.582031 60.167969 108.964844 C 60.0625 108.894531 59.957031 108.84375 59.871094 108.773438 C 59.1875 108.390625 58.46875 108.109375 57.714844 107.898438 C 58.503906 107.757812 59.34375 107.691406 60.167969 107.691406 Z M 39.699219 118.5625 C 42.117188 115.101562 44.871094 111.1875 49.109375 109.191406 C 51.492188 108.074219 53.964844 107.671875 56.226562 107.933594 C 51.6875 109.210938 48.304688 112.585938 45.308594 115.574219 C 44.605469 116.273438 43.921875 116.992188 43.238281 117.691406 L 42.625 118.335938 C 41.242188 118.792969 39.890625 119.386719 38.628906 120.101562 C 39 119.578125 39.347656 119.070312 39.699219 118.5625 Z M 37.578125 121.132812 L 37.296875 121.554688 C 36.949219 121.746094 36.597656 121.9375 36.265625 122.132812 C 36.667969 121.796875 37.105469 121.449219 37.578125 121.132812 Z M 33.828125 124.246094 C 33.722656 124.386719 33.617188 124.527344 33.511719 124.667969 C 33.390625 124.839844 33.269531 125.03125 33.144531 125.226562 C 32.621094 125.609375 32.128906 126.011719 31.65625 126.414062 C 32.320312 125.644531 33.039062 124.910156 33.828125 124.246094 Z M 29.640625 128.933594 C 29.550781 129.089844 29.484375 129.246094 29.414062 129.402344 C 29.324219 129.613281 29.238281 129.804688 29.148438 130.015625 C 28.710938 130.488281 28.289062 130.960938 27.886719 131.449219 C 28.394531 130.539062 28.972656 129.703125 29.640625 128.933594 Z M 26.328125 134.246094 C 26.277344 134.421875 26.222656 134.578125 26.1875 134.753906 C 26.136719 134.964844 26.082031 135.191406 26.03125 135.402344 C 25.679688 135.941406 25.347656 136.484375 25.03125 137.027344 C 25.382812 136.066406 25.820312 135.140625 26.328125 134.246094 Z M 35.597656 161.855469 C 30.253906 158.566406 24.59375 154.386719 23.277344 148.113281 C 23.171875 147.640625 23.105469 147.148438 23.070312 146.679688 C 22.875 144.5625 23.207031 142.308594 24.015625 140.050781 C 23.996094 140.226562 23.980469 140.402344 23.960938 140.574219 C 23.925781 141.066406 23.910156 141.574219 23.925781 142.0625 C 24.136719 148.566406 29.027344 153.742188 33.777344 157.9375 C 34.125 158.234375 34.476562 158.550781 34.828125 158.847656 C 35.457031 159.386719 36.070312 159.949219 36.703125 160.488281 C 36.648438 161.101562 36.582031 161.714844 36.457031 162.324219 Z M 32.234375 185.804688 C 29.449219 182.78125 30.042969 177.921875 31.515625 174.371094 C 32.109375 172.9375 32.863281 171.539062 33.582031 170.191406 C 34.757812 167.972656 35.984375 165.683594 36.582031 163.199219 C 36.613281 163.078125 36.632812 162.953125 36.667969 162.851562 C 37.367188 163.269531 38.085938 163.707031 38.789062 164.144531 C 38.875 165.019531 38.894531 165.910156 38.839844 166.785156 C 38.683594 169.300781 37.878906 171.75 37.125 174.128906 C 36.648438 175.59375 36.160156 177.117188 35.808594 178.636719 C 35.125 181.699219 35.160156 185.527344 36.949219 188.253906 C 35.160156 187.886719 33.496094 187.167969 32.234375 185.804688 Z M 37.613281 188.671875 C 38.4375 188.777344 39.277344 188.832031 40.121094 188.832031 C 40.820312 188.832031 41.503906 188.796875 42.136719 188.742188 C 42.539062 189.722656 43.117188 190.613281 43.835938 191.402344 C 42.046875 191.367188 40.261719 190.945312 38.789062 189.808594 C 38.351562 189.476562 37.945312 189.09375 37.613281 188.671875 Z M 45.9375 192.625 C 45.449219 192.378906 44.992188 192.066406 44.589844 191.699219 C 46.097656 191.628906 47.601562 191.382812 49.058594 191 C 49.636719 191.890625 50.355469 192.675781 51.195312 193.304688 C 49.425781 193.585938 47.585938 193.480469 45.9375 192.625 Z M 53.472656 194.164062 C 52.949219 194.003906 52.441406 193.777344 51.984375 193.480469 C 53.457031 193.148438 54.894531 192.660156 56.261719 192.011719 C 56.980469 192.78125 57.820312 193.429688 58.765625 193.917969 C 57.066406 194.496094 55.242188 194.707031 53.472656 194.164062 Z M 67.476562 163.410156 L 67.582031 163.480469 C 72.101562 166.292969 76.449219 169.546875 77.519531 174.320312 C 78.550781 178.933594 76.363281 184.039062 71.015625 189.476562 C 68.703125 191.820312 65.179688 194.898438 61.167969 194.371094 C 60.625 194.304688 60.082031 194.164062 59.574219 193.972656 C 61.324219 193.273438 62.917969 192.238281 64.199219 191.3125 C 70.507812 186.820312 73.59375 182.082031 73.363281 177.238281 C 73.136719 172.257812 69.386719 168.234375 65.375 164.632812 L 65.285156 164.546875 C 61.464844 161.121094 57.523438 157.585938 56.628906 152.710938 C 56.664062 152.816406 56.699219 152.9375 56.734375 153.042969 C 58.484375 157.816406 63.253906 160.785156 67.476562 163.410156 Z M 83.5625 131.066406 C 80.8125 134.4375 76.886719 136.539062 73.433594 138.144531 C 72.453125 138.601562 71.4375 139.054688 70.457031 139.472656 C 67.652344 140.699219 64.761719 141.976562 62.167969 143.671875 C 60.292969 144.894531 58.75 146.222656 57.59375 147.65625 C 58.574219 146.066406 59.765625 144.613281 61.148438 143.355469 C 63.410156 141.257812 66.023438 139.507812 68.546875 137.8125 C 69.4375 137.21875 70.351562 136.605469 71.246094 135.976562 C 74.398438 133.773438 77.921875 131.011719 80.09375 127.148438 C 82.355469 123.128906 82.53125 118.371094 80.550781 115.050781 C 80.148438 114.386719 79.671875 113.757812 79.128906 113.214844 C 82.476562 114.421875 85.035156 116.710938 86.085938 119.507812 C 87.402344 123.058594 86.402344 127.585938 83.5625 131.066406 Z M 83.5625 131.066406 " fill-opacity="1" fill-rule="nonzero"/></g><g fill="#ffffff" fill-opacity="1"><g transform="translate(90.849045, 163.885962)"><g><path d="M 11.238281 0.519531 C 16.359375 0.519531 19.679688 -1.839844 19.679688 -5.441406 C 19.679688 -8.679688 16.957031 -10.878906 11.71875 -11.917969 C 7.398438 -12.757812 5.917969 -13.597656 5.917969 -15.359375 C 5.917969 -17.199219 7.679688 -18.320312 10.679688 -18.320312 C 13.839844 -18.320312 15.71875 -17.078125 15.960938 -14.800781 L 19.277344 -14.800781 C 19 -18.878906 15.757812 -21.277344 10.640625 -21.277344 C 5.640625 -21.277344 2.601562 -19.078125 2.601562 -15.359375 C 2.601562 -12.078125 5.121094 -10.078125 10.480469 -9.199219 C 14.519531 -8.519531 16.359375 -7.398438 16.359375 -5.519531 C 16.359375 -3.640625 14.4375 -2.480469 11.277344 -2.480469 C 7.71875 -2.480469 5.601562 -4 5.480469 -6.519531 L 2.160156 -6.519531 C 2.238281 -2.28125 5.800781 0.519531 11.238281 0.519531 Z M 11.238281 0.519531 "/></g></g></g><g fill="#ffffff" fill-opacity="1"><g transform="translate(112.686877, 163.885962)"><g><path d="M 10.519531 0.320312 C 13.878906 0.320312 16.519531 -0.761719 18.398438 -2.878906 L 18.757812 0 L 21.519531 0 L 21.519531 -13.199219 C 21.519531 -18 17.878906 -21.277344 12.4375 -21.277344 C 7.917969 -21.277344 4.519531 -18.839844 3.601562 -14.839844 L 7 -14.839844 C 7.679688 -16.878906 9.800781 -18.160156 12.480469 -18.160156 C 16 -18.160156 18.160156 -16.199219 18.160156 -12.960938 L 18.160156 -12.199219 L 9.679688 -12.199219 C 5.359375 -12.199219 2.519531 -9.757812 2.519531 -6 C 2.519531 -2.078125 5.519531 0.320312 10.519531 0.320312 Z M 5.878906 -6.039062 C 5.878906 -8 7.480469 -9.238281 9.800781 -9.238281 L 18.199219 -9.238281 C 18.078125 -5.398438 14.960938 -2.679688 10.640625 -2.679688 C 7.71875 -2.679688 5.878906 -4 5.878906 -6.039062 Z M 5.878906 -6.039062 "/></g></g></g><g fill="#ffffff" fill-opacity="1"><g transform="translate(137.484414, 163.885962)"><g><path d="M 3.71875 0 L 7.078125 0 L 7.078125 -11.039062 C 7.078125 -15.320312 9.480469 -18.078125 13.078125 -18.078125 C 16.558594 -18.078125 18.757812 -15.4375 18.757812 -11.320312 L 18.757812 0 L 22.117188 0 L 22.117188 -11.039062 C 22.117188 -15.320312 24.519531 -18.078125 28.117188 -18.078125 C 31.597656 -18.078125 33.796875 -15.4375 33.796875 -11.320312 L 33.796875 0 L 37.15625 0 L 37.15625 -11.878906 C 37.15625 -17.679688 33.796875 -21.277344 28.558594 -21.277344 C 25.199219 -21.277344 22.480469 -19.839844 20.839844 -17.199219 C 19.4375 -19.878906 16.878906 -21.277344 13.558594 -21.277344 C 10.679688 -21.277344 8.359375 -20.199219 6.800781 -18.160156 L 6.480469 -20.757812 L 3.71875 -20.757812 Z M 3.71875 0 "/></g></g></g><g fill="#ffffff" fill-opacity="1"><g transform="translate(177.96039, 163.885962)"><g><path d="M 15.039062 0.519531 C 21.160156 0.519531 25.597656 -4.078125 25.597656 -10.398438 C 25.597656 -16.679688 21.160156 -21.277344 15.039062 -21.277344 C 11.640625 -21.277344 8.757812 -19.878906 6.878906 -17.558594 L 6.480469 -20.757812 L 3.71875 -20.757812 L 3.71875 8 L 7.078125 8 L 7.078125 -2.960938 C 8.960938 -0.800781 11.757812 0.519531 15.039062 0.519531 Z M 6.960938 -10.398438 C 6.960938 -14.878906 10.121094 -18.078125 14.597656 -18.078125 C 19.117188 -18.078125 22.238281 -14.878906 22.238281 -10.398438 C 22.238281 -5.878906 19.117188 -2.71875 14.597656 -2.71875 C 10.121094 -2.71875 6.960938 -5.878906 6.960938 -10.398438 Z M 6.960938 -10.398438 "/></g></g></g><g fill="#ffffff" fill-opacity="1"><g transform="translate(205.637638, 163.885962)"><g><path d="M 3.71875 0 L 7.078125 0 L 7.078125 -29.597656 L 3.71875 -29.597656 Z M 3.71875 0 "/></g></g></g><g fill="#ffffff" fill-opacity="1"><g transform="translate(216.436569, 163.885962)"><g><path d="M 11.238281 0.519531 C 16.359375 0.519531 19.679688 -1.839844 19.679688 -5.441406 C 19.679688 -8.679688 16.957031 -10.878906 11.71875 -11.917969 C 7.398438 -12.757812 5.917969 -13.597656 5.917969 -15.359375 C 5.917969 -17.199219 7.679688 -18.320312 10.679688 -18.320312 C 13.839844 -18.320312 15.71875 -17.078125 15.960938 -14.800781 L 19.277344 -14.800781 C 19 -18.878906 15.757812 -21.277344 10.640625 -21.277344 C 5.640625 -21.277344 2.601562 -19.078125 2.601562 -15.359375 C 2.601562 -12.078125 5.121094 -10.078125 10.480469 -9.199219 C 14.519531 -8.519531 16.359375 -7.398438 16.359375 -5.519531 C 16.359375 -3.640625 14.4375 -2.480469 11.277344 -2.480469 C 7.71875 -2.480469 5.601562 -4 5.480469 -6.519531 L 2.160156 -6.519531 C 2.238281 -2.28125 5.800781 0.519531 11.238281 0.519531 Z M 11.238281 0.519531 "/></g></g></g><g fill="#ffffff" fill-opacity="1"><g transform="translate(238.274401, 163.885962)"><g><path d="M 12.679688 0 L 15.800781 0 L 15.800781 -3.238281 L 12.839844 -3.238281 C 10.078125 -3.238281 8.800781 -4.640625 8.800781 -7.640625 L 8.800781 -17.679688 L 15.519531 -17.679688 L 15.519531 -20.757812 L 8.800781 -20.757812 L 8.800781 -25.917969 L 6.199219 -25.917969 L 5.878906 -23.117188 C 5.640625 -21.238281 5.078125 -20.757812 3.160156 -20.757812 L 1.078125 -20.757812 L 1.078125 -17.679688 L 5.441406 -17.679688 L 5.441406 -7.480469 C 5.441406 -2.71875 8.078125 0 12.679688 0 Z M 12.679688 0 "/></g></g></g><g fill="#ffffff" fill-opacity="1"><g transform="translate(256.032632, 163.885962)"><g><path d="M 10.519531 0.320312 C 13.878906 0.320312 16.519531 -0.761719 18.398438 -2.878906 L 18.757812 0 L 21.519531 0 L 21.519531 -13.199219 C 21.519531 -18 17.878906 -21.277344 12.4375 -21.277344 C 7.917969 -21.277344 4.519531 -18.839844 3.601562 -14.839844 L 7 -14.839844 C 7.679688 -16.878906 9.800781 -18.160156 12.480469 -18.160156 C 16 -18.160156 18.160156 -16.199219 18.160156 -12.960938 L 18.160156 -12.199219 L 9.679688 -12.199219 C 5.359375 -12.199219 2.519531 -9.757812 2.519531 -6 C 2.519531 -2.078125 5.519531 0.320312 10.519531 0.320312 Z M 5.878906 -6.039062 C 5.878906 -8 7.480469 -9.238281 9.800781 -9.238281 L 18.199219 -9.238281 C 18.078125 -5.398438 14.960938 -2.679688 10.640625 -2.679688 C 7.71875 -2.679688 5.878906 -4 5.878906 -6.039062 Z M 5.878906 -6.039062 "/></g></g></g><g fill="#ffffff" fill-opacity="1"><g transform="translate(280.830169, 163.885962)"><g><path d="M 3.71875 0 L 7.078125 0 L 7.078125 -8.960938 L 9.558594 -8.960938 C 10.519531 -8.960938 11.398438 -9 12.199219 -9.160156 L 17.917969 0 L 21.917969 0 L 15.4375 -10.28125 C 16.957031 -11.238281 18.039062 -12.800781 18.878906 -15.078125 L 20.957031 -20.757812 L 17.359375 -20.757812 L 15.800781 -16.320312 C 14.640625 -12.960938 13.039062 -12.078125 9.679688 -12.078125 L 7.078125 -12.078125 L 7.078125 -29.597656 L 3.71875 -29.597656 Z M 3.71875 0 "/></g></g></g></svg>