<svg xmlns="http://www.w3.org/2000/svg" xmlns:xlink="http://www.w3.org/1999/xlink" width="500" zoomAndPan="magnify" viewBox="0 0 375 374.999991" height="500" preserveAspectRatio="xMidYMid meet" version="1.0"><rect x="-37.5" width="450" fill="#ffffff" y="-37.499999" height="449.999989" fill-opacity="1"/><rect x="-37.5" width="450" fill="#ffffff" y="-37.499999" height="449.999989" fill-opacity="1"/><rect x="-37.5" width="450" fill="#000000" y="-37.499999" height="449.999989" fill-opacity="1"/><path fill="#a0e4b0" d="M 320.785156 52.449219 C 315.855469 39.375 303.523438 28.765625 287.605469 23.835938 C 280.054688 17.257812 269.816406 12.851562 258.308594 11.429688 C 249.714844 6.277344 238.878906 3.734375 227.292969 4.257812 C 217.953125 0.671875 206.816406 0 195.53125 2.613281 C 184.917969 0.523438 172.886719 2.242188 161.453125 7.621094 C 142.917969 16.214844 131.109375 33.097656 120.722656 48.042969 C 118.628906 51.03125 116.609375 54.019531 114.59375 57.007812 C 109.511719 60.144531 104.878906 63.957031 100.765625 68.289062 C 93.367188 73.519531 87.015625 80.09375 82.007812 87.640625 C 75.65625 94.066406 70.574219 101.613281 66.910156 109.90625 C 61.753906 117.378906 58.019531 125.671875 55.925781 134.488281 C 50.769531 145.996094 48.527344 157.949219 49.5 169.007812 C 49.722656 171.101562 50.023438 173.265625 50.46875 175.359375 C 56.148438 202.628906 80.511719 220.710938 103.679688 234.832031 L 107.640625 237.222656 C 107.492188 237.894531 107.34375 238.492188 107.195312 239.167969 C 104.652344 249.625 99.496094 259.339844 94.488281 268.753906 C 91.425781 274.582031 88.210938 280.558594 85.671875 286.761719 C 79.167969 302.300781 76.703125 323.59375 88.957031 336.96875 C 94.863281 343.394531 102.785156 346.609375 111.003906 348.027344 C 112.722656 350.417969 114.816406 352.511719 117.132812 354.230469 C 124.007812 359.535156 132.304688 361.253906 140.601562 361.253906 L 140.75 361.253906 C 142.84375 363.269531 145.234375 364.988281 147.851562 366.332031 C 152.78125 368.796875 158.164062 370.070312 163.695312 369.992188 C 166.609375 369.992188 169.523438 369.769531 172.363281 369.246094 C 174.753906 370.890625 177.445312 372.160156 180.210938 373.058594 C 183.347656 374.027344 186.5625 374.550781 189.851562 374.476562 C 195.007812 374.402344 200.015625 373.429688 204.796875 371.5625 C 207.488281 372.757812 210.328125 373.503906 213.167969 373.878906 C 214.511719 374.027344 215.859375 374.101562 217.203125 374.101562 C 233.195312 374.101562 247.023438 362 256.289062 352.511719 C 279.457031 328.898438 288.875 306.710938 284.316406 286.460938 C 279.609375 265.617188 260.921875 251.496094 241.34375 239.316406 L 240.894531 239.089844 C 222.210938 227.4375 203.003906 215.480469 195.605469 195.457031 C 194.410156 192.167969 193.585938 188.808594 193.140625 185.371094 C 193.140625 184.847656 193.140625 184.398438 193.140625 183.875 C 193.140625 183.351562 193.363281 182.90625 193.4375 182.382812 C 193.511719 181.859375 193.8125 181.410156 193.960938 180.960938 C 199.117188 172.21875 207.1875 164.152344 218.175781 156.976562 C 229.160156 149.804688 241.492188 144.351562 253.375 139.121094 C 257.5625 137.253906 261.894531 135.386719 266.082031 133.441406 C 280.953125 126.496094 297.84375 117.453125 309.800781 102.808594 C 322.28125 87.792969 326.542969 67.917969 320.785156 52.449219 Z M 294.851562 34.445312 C 303 48.265625 302.253906 68.066406 292.835938 84.878906 C 283.71875 101.164062 268.84375 112.894531 255.542969 122.160156 C 251.730469 124.851562 247.84375 127.464844 244.035156 130.007812 C 233.195312 137.253906 221.988281 144.726562 212.269531 153.765625 C 205.246094 160.265625 199.867188 167.066406 195.980469 173.9375 C 198.894531 166.46875 202.855469 159.519531 207.710938 153.167969 C 215.632812 142.632812 225.273438 133.367188 234.691406 124.328125 C 237.980469 121.191406 241.417969 117.902344 244.707031 114.613281 C 256.363281 103.035156 269.070312 88.761719 275.273438 70.90625 C 281.328125 53.496094 279.308594 34.816406 270.265625 22.191406 C 275.125 22.339844 279.980469 23.011719 284.613281 24.207031 C 285.363281 24.433594 286.183594 24.65625 286.929688 24.878906 C 289.996094 27.71875 292.6875 30.933594 294.851562 34.445312 Z M 133.5 348.625 L 135.59375 348.402344 C 142.246094 347.804688 148.820312 346.757812 155.324219 345.261719 C 156.742188 349.445312 158.613281 353.40625 160.855469 357.144531 C 154.875 358.636719 148 359.980469 141.125 360.058594 C 137.984375 356.769531 135.367188 352.882812 133.5 348.625 Z M 119.152344 244.394531 C 121.617188 245.964844 124.007812 247.460938 126.402344 249.101562 C 128.941406 255.230469 130.585938 261.730469 131.332031 268.304688 C 132.527344 278.988281 131.035156 289.898438 129.539062 300.507812 C 128.644531 307.007812 127.671875 313.808594 127.371094 320.457031 C 127 329.125 128.121094 338.914062 131.558594 347.503906 C 125.355469 347.953125 118.402344 348.027344 111.679688 346.90625 C 103.605469 335.550781 103.382812 318.964844 106.296875 305.738281 C 107.71875 299.3125 109.808594 292.8125 111.828125 286.609375 C 115.117188 276.375 118.554688 265.839844 119.226562 254.929688 C 119.523438 251.417969 119.523438 247.90625 119.152344 244.394531 Z M 55.925781 142.933594 C 56.148438 140.167969 56.597656 137.476562 57.195312 134.789062 C 58.839844 131.125 60.785156 127.539062 62.875 124.101562 C 62.875 124.101562 62.875 124.179688 62.875 124.179688 C 58.914062 151.75 75.582031 177.152344 92.472656 198.296875 L 96.207031 202.929688 C 100.542969 208.382812 104.953125 213.835938 109.0625 219.441406 C 109.136719 221.757812 109.136719 224.074219 108.988281 226.390625 C 106.597656 224.222656 104.203125 222.132812 101.8125 220.039062 C 100.320312 218.769531 98.824219 217.421875 97.328125 216.152344 C 77.226562 198.371094 56.597656 176.554688 55.703125 149.207031 C 55.703125 147.117188 55.703125 145.023438 55.925781 142.933594 Z M 92.097656 80.246094 L 92.023438 80.320312 C 90.976562 82.261719 90.078125 84.203125 89.332031 86.222656 C 85.894531 89.0625 82.53125 91.976562 79.316406 95.113281 C 80.4375 92.796875 81.710938 90.480469 83.128906 88.3125 C 85.894531 85.476562 88.957031 82.785156 92.097656 80.246094 Z M 109.882812 63.957031 C 108.6875 65.75 107.417969 67.617188 106.148438 69.410156 C 102.933594 71.277344 99.796875 73.148438 96.804688 75.238281 C 98.300781 73.148438 99.945312 71.128906 101.738281 69.261719 C 104.355469 67.320312 107.042969 65.601562 109.882812 63.957031 Z M 115.488281 57.90625 C 120.796875 54.617188 126.402344 51.925781 132.230469 49.835938 C 130.734375 51.40625 129.167969 52.972656 127.597656 54.542969 C 123.261719 56.035156 119.078125 57.832031 114.964844 59.773438 L 113.84375 60.296875 L 114.667969 59.101562 Z M 195.457031 3.886719 C 199.492188 4.707031 203.453125 6.125 207.039062 8.144531 L 207.414062 8.367188 C 194.410156 13.148438 182.902344 21.21875 172.4375 28.542969 C 169 30.933594 165.5625 33.472656 162.199219 35.9375 C 158.6875 38.480469 155.023438 41.167969 151.363281 43.707031 C 146.878906 44.457031 142.394531 45.425781 137.984375 46.699219 C 137.609375 46.773438 137.238281 46.921875 136.789062 47.070312 L 137.761719 46.023438 C 140.601562 43.035156 143.589844 39.972656 146.503906 36.984375 C 159.285156 24.207031 173.707031 9.789062 192.988281 4.484375 C 193.960938 4.257812 194.707031 4.035156 195.457031 3.886719 Z M 226.992188 5.527344 C 230.878906 7.023438 234.46875 9.117188 237.679688 11.730469 L 237.980469 12.027344 C 231.703125 13.226562 225.574219 14.941406 219.59375 17.257812 C 216.980469 13.972656 213.839844 11.058594 210.402344 8.667969 C 215.035156 7.171875 219.820312 6.125 224.601562 5.679688 C 225.425781 5.605469 226.246094 5.605469 226.992188 5.527344 Z M 257.785156 12.628906 C 261.296875 14.792969 264.511719 17.484375 267.203125 20.546875 L 267.5 20.921875 C 261.148438 20.996094 254.722656 21.667969 248.519531 22.9375 C 246.5 19.203125 243.957031 15.839844 240.96875 12.851562 C 244.109375 12.402344 247.246094 12.179688 250.386719 12.179688 C 252.105469 12.179688 253.75 12.253906 255.46875 12.402344 C 256.214844 12.476562 257.039062 12.550781 257.785156 12.628906 Z M 174.753906 317.917969 C 172.511719 307.457031 170.195312 296.546875 165.335938 286.761719 C 158.460938 272.9375 147.476562 262.476562 134.996094 253.363281 C 131.632812 248.953125 128.046875 244.695312 124.160156 240.734375 C 121.617188 235.804688 118.777344 231.023438 115.640625 226.390625 C 113.996094 221.085938 112.050781 215.855469 109.734375 210.773438 C 107.867188 195.457031 102.710938 180.214844 97.703125 165.273438 L 95.757812 159.59375 C 88.660156 138.375 82.605469 114.539062 88.359375 93.246094 C 92.394531 88.835938 96.433594 84.28125 100.167969 79.574219 L 100.617188 79.050781 L 101.886719 78.003906 C 107.941406 73.445312 114.21875 68.664062 119.972656 63.507812 L 120.496094 63.058594 L 121.992188 62.3125 C 128.792969 58.875 135.742188 55.289062 142.320312 51.179688 L 142.917969 50.808594 L 144.5625 50.285156 C 151.8125 48.042969 159.359375 45.726562 166.535156 42.8125 L 167.207031 42.589844 L 168.851562 42.363281 C 176.398438 41.394531 184.171875 40.421875 191.71875 38.851562 C 199.941406 37.058594 208.160156 34.742188 216.082031 32.425781 C 219.296875 31.53125 222.511719 30.558594 225.796875 29.664062 C 228.9375 36.910156 230.582031 44.679688 230.65625 52.601562 C 230.878906 71.203125 223.855469 88.835938 216.980469 103.554688 C 215.035156 107.742188 212.945312 112 210.925781 116.109375 C 205.171875 127.765625 199.191406 139.867188 195.304688 152.570312 C 191.945312 163.554688 190.746094 173.640625 191.570312 182.753906 C 190.597656 184.625 189.777344 186.566406 189.027344 188.507812 C 181.628906 208.980469 189.101562 231.769531 195.605469 251.867188 L 195.753906 252.316406 C 202.78125 273.910156 208.011719 296.472656 198.445312 315.003906 C 194.261719 323.074219 187.757812 329.648438 178.863281 334.726562 C 177.21875 329.347656 175.949219 323.59375 174.753906 317.917969 Z M 177.742188 335.699219 C 170.941406 339.285156 163.769531 341.976562 156.292969 343.769531 C 154.949219 339.660156 154.054688 335.402344 153.453125 331.140625 C 152.632812 324.640625 152.332031 317.84375 152.109375 311.265625 C 151.734375 300.507812 151.289062 289.449219 148.222656 278.988281 C 145.832031 271.144531 142.246094 263.746094 137.535156 257.023438 C 148.523438 265.464844 158.089844 275.105469 164.140625 287.433594 C 168.925781 297.070312 171.242188 307.832031 173.484375 318.289062 C 174.679688 323.96875 176.023438 329.945312 177.742188 335.699219 Z M 131.332031 250.746094 C 130.0625 249.851562 128.867188 249.027344 127.597656 248.207031 C 127.148438 247.011719 126.625 245.816406 126.101562 244.695312 C 127.820312 246.636719 129.613281 248.65625 131.332031 250.746094 Z M 120.945312 237.523438 C 119.898438 236.476562 118.777344 235.429688 117.65625 234.382812 C 117.359375 233.113281 117.058594 231.84375 116.761719 230.648438 C 118.253906 232.890625 119.601562 235.207031 120.945312 237.523438 Z M 110.40625 218.992188 C 110.332031 217.722656 110.257812 216.378906 110.183594 215.109375 C 111.230469 217.574219 112.125 220.113281 113.023438 222.652344 C 112.203125 221.457031 111.304688 220.1875 110.40625 218.992188 Z M 75.058594 107.890625 C 78.273438 104.230469 81.558594 100.640625 84.847656 97.132812 L 86.492188 95.335938 C 81.710938 116.40625 87.613281 139.496094 94.488281 160.191406 C 95.160156 162.058594 95.757812 163.925781 96.433594 165.871094 C 100.992188 179.320312 105.625 193.066406 107.792969 206.8125 C 104.128906 199.042969 99.945312 191.421875 95.835938 183.875 L 92.996094 178.644531 C 81.261719 156.902344 70.273438 131.949219 75.058594 107.890625 Z M 89.183594 90.480469 C 89.554688 89.359375 89.929688 88.164062 90.453125 87.042969 C 92.394531 85.476562 94.339844 83.980469 96.28125 82.488281 C 93.964844 85.25 91.574219 87.941406 89.183594 90.480469 Z M 103.457031 75.3125 C 104.652344 73.671875 105.847656 72.027344 106.96875 70.382812 C 109.808594 68.738281 112.722656 67.167969 115.5625 65.675781 C 111.679688 69.039062 107.566406 72.25 103.457031 75.3125 Z M 137.6875 52.601562 C 133.203125 55.214844 128.566406 57.605469 124.007812 59.996094 C 125.503906 58.578125 126.925781 57.15625 128.34375 55.738281 C 131.40625 54.617188 134.546875 53.570312 137.6875 52.601562 Z M 146.878906 48.339844 C 148.597656 47.21875 150.242188 46.101562 151.886719 44.90625 C 155.097656 44.382812 158.386719 43.859375 161.601562 43.410156 C 156.742188 45.277344 151.8125 46.847656 146.878906 48.339844 Z M 171.464844 40.871094 C 177.519531 38.253906 183.5 35.265625 189.253906 32.5 C 192.988281 30.707031 196.800781 28.839844 200.613281 27.046875 C 206.515625 24.28125 212.71875 21.367188 219.222656 18.902344 C 221.539062 21.964844 223.554688 25.253906 225.125 28.691406 C 221.914062 29.585938 218.699219 30.484375 215.558594 31.378906 C 207.636719 33.695312 199.492188 36.011719 191.269531 37.730469 C 184.84375 39.152344 178.042969 40.046875 171.464844 40.871094 Z M 231.851562 52.824219 C 231.777344 44.828125 230.132812 36.910156 226.992188 29.585938 L 228.113281 29.289062 C 234.394531 27.570312 241.042969 25.777344 247.84375 24.507812 C 253.152344 34.519531 255.167969 47.21875 253.078125 59.921875 C 250.085938 78.300781 240.148438 94.441406 230.804688 107.742188 C 228.113281 111.550781 225.351562 115.363281 222.660156 119.023438 C 214.960938 129.558594 206.964844 140.390625 200.988281 152.269531 C 196.652344 160.789062 193.886719 169.007812 192.617188 176.777344 C 192.839844 168.785156 194.109375 160.863281 196.503906 153.242188 C 200.3125 140.691406 206.21875 128.585938 211.972656 116.929688 C 213.992188 112.820312 216.082031 108.5625 218.027344 104.378906 C 225.050781 89.433594 232.074219 71.652344 231.851562 52.824219 Z M 199.566406 315.898438 C 209.355469 296.921875 204.125 274.058594 197.027344 252.167969 L 196.875 251.71875 C 190.074219 230.949219 183.050781 209.429688 190.148438 189.480469 C 190.074219 190.003906 189.925781 190.453125 189.851562 190.972656 C 186.113281 212.417969 197.398438 233.5625 207.339844 252.242188 L 207.5625 252.691406 C 218.25 272.714844 227.292969 294.082031 221.089844 313.957031 C 216.457031 328.824219 204.199219 340.628906 184.46875 349.222656 C 182.453125 345.414062 180.808594 341.378906 179.539062 337.269531 C 179.460938 336.96875 179.3125 336.597656 179.238281 336.296875 C 188.429688 331.066406 195.230469 324.191406 199.566406 315.898438 Z M 202.105469 152.71875 C 208.085938 140.988281 216.007812 130.15625 223.707031 119.695312 C 226.394531 116.035156 229.160156 112.222656 231.851562 108.414062 C 241.269531 94.964844 251.359375 78.675781 254.347656 60.070312 C 256.441406 47.21875 254.421875 34.445312 249.117188 24.207031 C 255.242188 23.011719 261.445312 22.339844 267.726562 22.265625 L 268.546875 22.265625 C 277.886719 34.59375 280.054688 53.273438 274.003906 70.605469 C 267.875 88.164062 255.242188 102.359375 243.734375 113.792969 C 240.445312 117.082031 237.082031 120.292969 233.796875 123.503906 C 224.378906 132.546875 214.664062 141.886719 206.667969 152.496094 C 200.910156 160.191406 196.726562 167.738281 194.183594 175.210938 C 195.753906 167.363281 198.445312 159.816406 202.105469 152.71875 Z M 247.171875 23.160156 C 240.519531 24.433594 233.945312 26.226562 227.742188 27.945312 L 226.472656 28.316406 C 224.902344 24.804688 222.882812 21.445312 220.566406 18.378906 C 226.621094 16.0625 232.898438 14.269531 239.324219 13.148438 C 242.390625 16.0625 245.078125 19.425781 247.171875 23.160156 Z M 218.398438 17.78125 C 212.046875 20.25 205.917969 23.085938 200.089844 25.851562 C 196.277344 27.644531 192.464844 29.511719 188.730469 31.304688 C 181.554688 34.816406 174.230469 38.402344 166.757812 41.46875 C 162.648438 41.992188 158.535156 42.511719 154.425781 43.1875 C 157.339844 41.09375 160.179688 39 163.019531 36.984375 C 166.308594 34.59375 169.746094 32.054688 173.183594 29.664062 C 183.871094 22.191406 195.605469 13.898438 208.832031 9.265625 C 212.421875 11.582031 215.632812 14.421875 218.398438 17.78125 Z M 138.433594 47.894531 C 141.871094 46.921875 145.308594 46.175781 148.820312 45.503906 C 146.652344 46.996094 144.488281 48.414062 142.320312 49.761719 C 138.433594 51.03125 134.472656 52.226562 130.585938 53.570312 C 132.082031 52.003906 133.648438 50.507812 135.144531 48.9375 C 136.117188 48.566406 137.238281 48.191406 138.433594 47.894531 Z M 115.5625 60.96875 C 118.777344 59.398438 122.066406 58.054688 125.355469 56.785156 C 123.484375 58.578125 121.617188 60.371094 119.75 62.089844 C 116.085938 63.957031 112.425781 65.898438 108.761719 67.917969 C 110.035156 66.125 111.230469 64.332031 112.425781 62.539062 C 113.398438 62.015625 114.519531 61.492188 115.5625 60.96875 Z M 95.3125 77.855469 C 98.226562 75.761719 101.214844 73.820312 104.28125 72.027344 C 102.785156 74.117188 101.214844 76.210938 99.644531 78.300781 C 96.957031 80.394531 94.191406 82.410156 91.5 84.578125 C 92.023438 83.382812 92.621094 82.1875 93.21875 80.992188 C 93.742188 80.09375 94.265625 79.125 94.789062 78.226562 Z M 78.347656 97.953125 C 81.558594 94.738281 84.921875 91.601562 88.433594 88.761719 C 87.988281 90.03125 87.539062 91.453125 87.164062 92.796875 L 83.875 96.308594 C 81.113281 99.222656 78.347656 102.210938 75.65625 105.273438 C 75.953125 104.003906 76.328125 102.734375 76.777344 101.464844 C 77.074219 100.492188 77.449219 99.445312 77.824219 98.476562 Z M 75.582031 101.015625 C 74.910156 103.109375 74.386719 105.199219 73.9375 107.292969 C 71.023438 110.65625 68.183594 114.167969 65.640625 117.753906 C 66.3125 115.285156 67.210938 112.820312 68.183594 110.429688 C 70.5 107.066406 72.964844 103.929688 75.65625 100.867188 Z M 65.117188 120.667969 C 67.734375 116.929688 70.5 113.269531 73.414062 109.832031 C 69.601562 133.59375 80.363281 157.949219 91.875 179.09375 L 94.714844 184.324219 C 99.570312 193.140625 104.429688 202.03125 108.464844 211.148438 C 108.6875 213.089844 108.839844 215.109375 108.988281 217.050781 C 105.175781 211.96875 101.214844 207.039062 97.253906 202.03125 L 93.515625 197.398438 C 76.851562 176.40625 60.335938 151.300781 64.222656 124.253906 C 64.371094 123.207031 64.519531 122.160156 64.746094 121.113281 Z M 110.480469 221.308594 C 111.828125 223.175781 113.171875 225.121094 114.441406 226.988281 C 115.042969 228.855469 115.5625 230.796875 116.011719 232.742188 C 114.144531 230.949219 112.203125 229.230469 110.332031 227.511719 C 110.40625 225.417969 110.480469 223.402344 110.480469 221.308594 Z M 116.460938 235.058594 C 116.910156 237.296875 117.285156 239.613281 117.582031 241.929688 C 114.890625 240.210938 112.125 238.570312 109.359375 236.925781 L 108.988281 236.699219 C 109.511719 234.234375 109.808594 231.695312 110.035156 229.230469 C 112.277344 231.097656 114.367188 233.039062 116.460938 235.058594 Z M 118.105469 236.625 C 119.75 238.269531 121.394531 239.914062 123.039062 241.558594 C 123.933594 243.351562 124.757812 245.144531 125.578125 246.9375 C 123.410156 245.515625 121.246094 244.171875 119.078125 242.753906 C 118.851562 240.660156 118.480469 238.644531 118.105469 236.625 Z M 128.792969 320.457031 C 129.089844 313.882812 130.0625 307.15625 130.960938 300.65625 C 132.453125 290.046875 133.949219 278.988281 132.753906 268.15625 C 132.082031 262.027344 130.585938 256.050781 128.417969 250.375 C 130.363281 251.644531 132.230469 252.988281 134.097656 254.332031 C 139.777344 261.878906 144.261719 270.097656 146.953125 279.214844 C 150.015625 289.523438 150.390625 300.582031 150.765625 311.191406 C 150.988281 317.765625 151.289062 324.566406 152.109375 331.214844 C 152.707031 335.550781 153.605469 339.808594 154.949219 343.992188 C 148.523438 345.488281 142.019531 346.457031 135.519531 347.132812 C 134.695312 347.207031 133.875 347.28125 132.976562 347.355469 C 129.539062 338.910156 128.417969 329.125 128.792969 320.457031 Z M 156.667969 344.964844 C 164.140625 343.246094 171.316406 340.554688 178.117188 336.96875 C 178.191406 337.195312 178.265625 337.417969 178.339844 337.640625 C 179.6875 341.824219 181.332031 345.859375 183.347656 349.746094 C 177.296875 352.285156 171.09375 354.453125 164.738281 356.171875 C 163.917969 356.394531 163.097656 356.621094 162.273438 356.84375 C 159.957031 353.109375 158.089844 349.148438 156.667969 344.964844 Z M 165.039062 357.441406 C 171.464844 355.648438 177.742188 353.480469 183.945312 350.941406 C 186.039062 354.828125 188.582031 358.414062 191.496094 361.699219 C 185.816406 364.242188 179.3125 366.707031 172.585938 367.976562 C 168.777344 365.285156 165.5625 361.925781 163.019531 358.039062 Z M 185.140625 350.34375 C 205.097656 341.527344 217.578125 329.421875 222.359375 314.253906 C 228.714844 293.859375 219.59375 272.265625 208.757812 251.941406 L 208.535156 251.496094 C 198.222656 232.21875 187.609375 212.195312 191.121094 191.347656 C 191.121094 191.871094 191.121094 192.320312 191.121094 192.84375 C 191.195312 214.585938 205.917969 233.488281 218.996094 250.148438 L 219.296875 250.523438 C 233.347656 268.453125 245.902344 287.804688 243.210938 308.503906 C 240.597656 328.601562 224.378906 345.859375 195.007812 359.90625 C 194.261719 360.28125 193.511719 360.65625 192.691406 360.953125 C 189.777344 357.816406 187.234375 354.230469 185.140625 350.34375 Z M 195.605469 361.175781 C 225.425781 346.90625 241.867188 329.273438 244.558594 308.726562 C 247.320312 287.582031 234.542969 267.855469 220.34375 249.777344 L 220.042969 249.402344 C 206.515625 232.144531 192.617188 214.359375 192.464844 193.214844 C 192.542969 193.738281 192.617188 194.1875 192.691406 194.710938 C 196.503906 216.078125 214.363281 232.144531 230.058594 246.265625 L 230.433594 246.5625 C 247.320312 261.730469 263.089844 278.691406 264.0625 299.535156 C 264.960938 319.710938 252.03125 339.585938 225.5 358.5625 C 219.746094 362.671875 212.570312 367.304688 204.796875 370.21875 C 200.613281 368.199219 196.875 365.511719 193.664062 362.074219 Z M 284.390625 22.9375 C 279.457031 21.742188 274.375 21.070312 269.21875 20.996094 C 268.921875 20.621094 268.546875 20.171875 268.246094 19.800781 C 266.082031 17.257812 263.613281 15.019531 260.925781 13.148438 C 269.890625 14.644531 277.964844 18.082031 284.390625 22.9375 Z M 254.945312 11.058594 C 249.863281 10.683594 244.707031 10.910156 239.699219 11.730469 C 239.324219 11.355469 238.953125 11.058594 238.503906 10.757812 C 235.960938 8.59375 233.121094 6.800781 230.132812 5.453125 C 239.25 5.453125 247.769531 7.398438 254.945312 11.058594 Z M 209.058594 2.316406 C 214.140625 2.316406 219.148438 2.988281 223.929688 4.484375 C 218.847656 5.007812 213.839844 6.125 209.058594 7.769531 C 208.609375 7.472656 208.160156 7.246094 207.789062 6.949219 C 204.871094 5.304688 201.808594 4.109375 198.59375 3.210938 C 201.957031 2.613281 205.546875 2.316406 209.058594 2.316406 Z M 121.765625 48.789062 C 132.082031 33.996094 143.8125 17.257812 161.898438 8.742188 C 172.0625 3.960938 182.601562 2.242188 192.242188 3.363281 C 172.886719 8.816406 158.460938 23.238281 145.683594 36.011719 C 142.691406 39 139.777344 42.066406 136.863281 45.054688 L 134.246094 47.816406 C 128.34375 49.761719 122.589844 52.300781 117.207031 55.363281 C 118.777344 53.125 120.273438 50.957031 121.765625 48.789062 Z M 112.722656 59.773438 L 111.527344 61.566406 C 110.035156 62.386719 108.539062 63.210938 107.121094 64.03125 C 108.839844 62.613281 110.707031 61.117188 112.722656 59.773438 Z M 96.730469 73.074219 C 96.28125 73.671875 95.835938 74.269531 95.386719 74.867188 C 94.863281 75.613281 94.339844 76.433594 93.816406 77.257812 C 91.574219 78.898438 89.480469 80.617188 87.464844 82.335938 C 90.304688 79.050781 93.367188 75.910156 96.730469 73.074219 Z M 78.871094 93.097656 C 78.496094 93.769531 78.195312 94.441406 77.898438 95.113281 C 77.523438 96.011719 77.152344 96.832031 76.777344 97.730469 C 74.910156 99.746094 73.113281 101.761719 71.394531 103.855469 C 73.5625 99.96875 76.03125 96.382812 78.871094 93.097656 Z M 64.746094 115.808594 C 64.519531 116.558594 64.296875 117.230469 64.148438 117.976562 C 63.921875 118.875 63.699219 119.84375 63.472656 120.742188 C 61.980469 123.058594 60.558594 125.375 59.214844 127.691406 C 60.707031 123.582031 62.578125 119.621094 64.746094 115.808594 Z M 104.28125 233.785156 C 81.484375 219.738281 57.347656 201.882812 51.742188 175.058594 C 51.292969 173.042969 50.992188 170.949219 50.84375 168.933594 C 50.023438 159.890625 51.441406 150.253906 54.878906 140.617188 C 54.804688 141.363281 54.730469 142.109375 54.65625 142.855469 C 54.503906 144.949219 54.429688 147.117188 54.503906 149.207031 C 55.402344 177.003906 76.253906 199.117188 96.507812 217.050781 C 98 218.320312 99.496094 219.664062 100.992188 220.933594 C 103.679688 223.25 106.296875 225.640625 108.988281 227.957031 C 108.761719 230.574219 108.464844 233.1875 107.941406 235.804688 Z M 89.929688 336.148438 C 78.046875 323.222656 80.589844 302.449219 86.867188 287.285156 C 89.40625 281.15625 92.621094 275.179688 95.683594 269.425781 C 100.691406 259.9375 105.921875 250.148438 108.464844 239.539062 C 108.613281 239.015625 108.6875 238.492188 108.839844 238.046875 C 111.828125 239.839844 114.890625 241.707031 117.882812 243.574219 C 118.253906 247.308594 118.328125 251.121094 118.105469 254.855469 C 117.433594 265.617188 113.996094 276.074219 110.78125 286.238281 C 108.761719 292.511719 106.671875 299.015625 105.175781 305.515625 C 102.261719 318.589844 102.410156 334.953125 110.035156 346.609375 C 102.410156 345.039062 95.3125 341.976562 89.929688 336.148438 Z M 112.875 348.402344 C 116.386719 348.847656 119.972656 349.074219 123.5625 349.074219 C 126.550781 349.074219 129.464844 348.925781 132.15625 348.699219 C 133.875 352.882812 136.339844 356.695312 139.40625 360.058594 C 131.78125 359.90625 124.160156 358.113281 117.882812 353.257812 C 116.011719 351.839844 114.292969 350.195312 112.875 348.402344 Z M 148.371094 365.285156 C 146.28125 364.242188 144.335938 362.894531 142.617188 361.328125 C 149.046875 361.027344 155.472656 359.980469 161.675781 358.339844 C 164.140625 362.148438 167.207031 365.511719 170.792969 368.199219 C 163.246094 369.394531 155.398438 368.949219 148.371094 365.285156 Z M 180.507812 371.863281 C 178.265625 371.1875 176.101562 370.21875 174.15625 368.949219 C 180.433594 367.527344 186.5625 365.4375 192.390625 362.671875 C 195.457031 365.960938 199.042969 368.722656 203.078125 370.816406 C 195.828125 373.28125 188.058594 374.179688 180.507812 371.863281 Z M 240.222656 240.4375 L 240.671875 240.734375 C 259.953125 252.765625 278.488281 266.660156 283.046875 287.058594 C 287.453125 306.785156 278.113281 328.601562 255.320312 351.839844 C 245.453125 361.851562 230.433594 375 213.316406 372.757812 C 211 372.460938 208.683594 371.863281 206.515625 371.039062 C 213.992188 368.050781 220.792969 363.644531 226.246094 359.683594 C 253.152344 340.480469 266.304688 320.234375 265.332031 299.535156 C 264.363281 278.242188 248.367188 261.058594 231.253906 245.667969 L 230.878906 245.292969 C 214.589844 230.648438 197.773438 215.554688 193.960938 194.710938 C 194.109375 195.160156 194.261719 195.679688 194.410156 196.128906 C 201.882812 216.527344 222.210938 229.230469 240.222656 240.4375 Z M 308.828125 102.210938 C 297.09375 116.632812 280.355469 125.597656 265.632812 132.472656 C 261.445312 134.414062 257.113281 136.355469 252.925781 138.148438 C 240.96875 143.378906 228.636719 148.835938 217.578125 156.082031 C 209.582031 161.3125 203.003906 166.992188 198.070312 173.117188 C 202.257812 166.316406 207.339844 160.117188 213.242188 154.738281 C 222.882812 145.769531 234.019531 138.300781 244.78125 131.050781 C 248.59375 128.511719 252.480469 125.898438 256.289062 123.207031 C 269.742188 113.792969 284.765625 101.988281 294.03125 85.476562 C 303.671875 68.289062 304.417969 47.96875 295.972656 33.773438 C 294.253906 30.933594 292.238281 28.242188 289.921875 25.925781 C 304.195312 31.082031 315.105469 40.871094 319.589844 52.824219 C 325.195312 67.992188 320.9375 87.34375 308.828125 102.210938 Z M 308.828125 102.210938 " fill-opacity="1" fill-rule="nonzero"/></svg>